<?xml version="1.0" encoding="UTF-8" standalone="no"?>
<!-- Created with Inkscape (http://www.inkscape.org/) -->

<svg
   xmlns:dc="http://purl.org/dc/elements/1.1/"
   xmlns:cc="http://creativecommons.org/ns#"
   xmlns:rdf="http://www.w3.org/1999/02/22-rdf-syntax-ns#"
   xmlns:svg="http://www.w3.org/2000/svg"
   xmlns="http://www.w3.org/2000/svg"
   xmlns:sodipodi="http://sodipodi.sourceforge.net/DTD/sodipodi-0.dtd"
   xmlns:inkscape="http://www.inkscape.org/namespaces/inkscape"
   width="1100"
   height="680"
   viewBox="0 0 1100 680.00001"
   id="svg2"
   version="1.1"
   inkscape:version="0.91 r13725"
   sodipodi:docname="logo_wide.svg"
   inkscape:export-filename="C:\Users\mike\Documents\GitHub\photo-screen-saver\store\logo.png"
   inkscape:export-xdpi="90"
   inkscape:export-ydpi="90">
  <defs
     id="defs4" />
  <sodipodi:namedview
     id="base"
     pagecolor="#d6d6d6"
     bordercolor="#666666"
     borderopacity="1.0"
     inkscape:pageopacity="0"
     inkscape:pageshadow="2"
     inkscape:zoom="1.1854545"
     inkscape:cx="550"
     inkscape:cy="340"
     inkscape:document-units="px"
     inkscape:current-layer="layer1"
     showgrid="false"
     units="px"
     inkscape:window-width="1920"
     inkscape:window-height="1057"
     inkscape:window-x="-8"
     inkscape:window-y="-8"
     inkscape:window-maximized="1" />
  <metadata
     id="metadata7">
    <rdf:RDF>
      <cc:Work
         rdf:about="">
        <dc:format>image/svg+xml</dc:format>
        <dc:type
           rdf:resource="http://purl.org/dc/dcmitype/StillImage" />
        <dc:title></dc:title>
      </cc:Work>
    </rdf:RDF>
  </metadata>
  <g
     inkscape:label="Layer 1"
     inkscape:groupmode="layer"
     id="layer1"
     transform="translate(0,-372.36216)">
    <text
       xml:space="preserve"
       style="font-style:normal;font-variant:normal;font-weight:normal;font-stretch:normal;font-size:103.45500183px;line-height:1000%;font-family:sans-serif;-inkscape-font-specification:'sans-serif, Normal';text-align:start;letter-spacing:0px;word-spacing:0px;writing-mode:lr-tb;text-anchor:start;fill:#ffffff;fill-opacity:1;stroke:none;stroke-width:1px;stroke-linecap:butt;stroke-linejoin:miter;stroke-opacity:1"
       x="33.179611"
       y="1017.5984"
       id="text4140"
       sodipodi:linespacing="1000%"><tspan
         sodipodi:role="line"
         id="tspan4868"
         x="33.179611"
         y="1017.5984">Photo Screen Saver</tspan></text>
    <path
       style="opacity:1;fill:#ffffff;fill-opacity:1;fill-rule:nonzero;stroke:#000000;stroke-width:0;stroke-linejoin:round;stroke-miterlimit:4;stroke-dasharray:none;stroke-opacity:0.50697674"
       d="m 550,611.36216 a 135,134.99998 0 0 0 -135,135 135,134.99998 0 0 0 135,135 135,134.99998 0 0 0 135,-135 135,134.99998 0 0 0 -135,-135 z m -27.81836,59.89257 55.63672,0 c 6.85433,0 12.94046,4.11603 15.49414,10.48633 l 7.63867,19.10547 24.11328,4.02343 c 8.08388,1.34082 13.95313,8.26188 13.95313,16.45703 l 0,83.45313 c 0,9.20216 -7.48925,16.68945 -16.69141,16.68945 l -144.65234,0 c -9.20216,0 -16.69141,-7.48729 -16.69141,-16.68945 l 0,-83.45313 c 0,-8.19515 5.86955,-15.11621 13.95899,-16.45703 l 24.10742,-4.02343 7.63281,-19.09961 c 2.55924,-6.37586 8.64567,-10.49219 15.5,-10.49219 z m 0,11.12695 c -2.2755,0 -4.31674,1.38946 -5.16797,3.49805 l -9.96484,24.91406 -30.28711,5.04688 c -2.68164,0.44509 -4.65236,2.76573 -4.65234,5.48632 l 0,83.45313 c 0,3.07666 2.48779,5.5625 5.56445,5.5625 l 144.65234,0 c 3.07666,0 5.56447,-2.48584 5.56445,-5.5625 l 0,-83.45313 c 10e-6,-2.72059 -1.9707,-5.04123 -4.65234,-5.48632 l -30.29297,-5.04688 -9.96484,-24.91406 c -0.85123,-2.11416 -2.89217,-3.49805 -5.16211,-3.49805 l -55.63672,0 z M 550,710.20396 c 24.5799,0 44.50781,19.92987 44.50781,44.50976 0,24.5799 -19.92791,44.50781 -44.50781,44.50782 -24.58546,0 -44.50781,-19.92792 -44.50781,-44.50782 0,-24.58546 19.92235,-44.50976 44.50781,-44.50976 z m 0.64258,11.13672 c -9.61689,-0.18147 -19.23442,3.77535 -25.97852,11.65234 -12.00065,13.99239 -10.38829,35.06741 3.61524,47.0625 13.99797,12.00063 35.06742,10.38077 47.0625,-3.6172 11.99508,-13.9924 10.37716,-35.07298 -3.61524,-47.0625 -6.12411,-5.25028 -13.60418,-7.89402 -21.08398,-8.03515 z M 550,732.45785 c 1.53555,0 2.78125,1.24767 2.78125,2.78322 0,1.53554 -1.2457,2.78125 -2.78125,2.78125 -9.21885,0 -16.68541,7.47225 -16.69141,16.68553 l 0,0.0117 c 0,1.52998 -1.2457,2.78125 -2.78125,2.78125 -1.53555,0 -2.78125,-1.25127 -2.78125,-2.78125 l 0,-0.0117 c 0.006,-12.28438 9.96396,-22.25 22.25391,-22.25 z"
       id="path4825"
       inkscape:connector-curvature="0" />
  </g>
</svg>
